<svg width="24" height="24" viewBox="0 0 24 24" fill="none" xmlns="http://www.w3.org/2000/svg">
<path d="M13.5897 11.996L18.0425 7.54319C18.2538 7.33223 18.3727 7.04597 18.373 6.74737C18.3732 6.44877 18.2549 6.16229 18.0439 5.95096C17.833 5.73964 17.5467 5.62077 17.2481 5.6205C16.9495 5.62024 16.663 5.7386 16.4517 5.94956L11.9989 10.4023L7.54612 5.94956C7.33479 5.73823 7.04817 5.61951 6.7493 5.61951C6.45044 5.61951 6.16382 5.73823 5.95249 5.94956C5.74116 6.16089 5.62244 6.44751 5.62244 6.74637C5.62244 7.04524 5.74116 7.33186 5.95249 7.54319L10.4053 11.996L5.95249 16.4488C5.74116 16.6601 5.62244 16.9467 5.62244 17.2456C5.62244 17.5444 5.74116 17.8311 5.95249 18.0424C6.16382 18.2537 6.45044 18.3724 6.7493 18.3724C7.04817 18.3724 7.33479 18.2537 7.54612 18.0424L11.9989 13.5896L16.4517 18.0424C16.663 18.2537 16.9496 18.3724 17.2485 18.3724C17.5474 18.3724 17.834 18.2537 18.0453 18.0424C18.2567 17.8311 18.3754 17.5444 18.3754 17.2456C18.3754 16.9467 18.2567 16.6601 18.0453 16.4488L13.5897 11.996Z" fill="#717171"/>
</svg>
